<?xml version="1.0" encoding="UTF-8" standalone="no"?>
<!-- Created with Inkscape (http://www.inkscape.org/) -->

<svg
   xmlns:dc="http://purl.org/dc/elements/1.1/"
   xmlns:cc="http://creativecommons.org/ns#"
   xmlns:rdf="http://www.w3.org/1999/02/22-rdf-syntax-ns#"
   xmlns:svg="http://www.w3.org/2000/svg"
   xmlns="http://www.w3.org/2000/svg"
   xmlns:sodipodi="http://sodipodi.sourceforge.net/DTD/sodipodi-0.dtd"
   xmlns:inkscape="http://www.inkscape.org/namespaces/inkscape"
   width="64"
   height="64"
   id="svg2"
   version="1.1"
   inkscape:version="0.48.5 r10040"
   sodipodi:docname="FDG_Icons.svg">
  <defs
     id="defs4" />
  <sodipodi:namedview
     id="base"
     pagecolor="#ffffff"
     bordercolor="#666666"
     borderopacity="1.0"
     inkscape:pageopacity="0.0"
     inkscape:pageshadow="2"
     inkscape:zoom="8.02"
     inkscape:cx="32.805486"
     inkscape:cy="29.900249"
     inkscape:document-units="px"
     inkscape:current-layer="layer2"
     showgrid="true"
     objecttolerance="10000"
     inkscape:window-width="1172"
     inkscape:window-height="727"
     inkscape:window-x="54"
     inkscape:window-y="0"
     inkscape:window-maximized="0">
    <inkscape:grid
       type="xygrid"
       id="grid2985"
       empspacing="4"
       visible="true"
       enabled="true"
       snapvisiblegridlinesonly="true"
       dotted="false" />
  </sodipodi:namedview>
  <metadata
     id="metadata7">
    <rdf:RDF>
      <cc:Work
         rdf:about="">
        <dc:format>image/svg+xml</dc:format>
        <dc:type
           rdf:resource="http://purl.org/dc/dcmitype/StillImage" />
        <dc:title></dc:title>
      </cc:Work>
    </rdf:RDF>
  </metadata>
  <g
     inkscape:label="Save"
     inkscape:groupmode="layer"
     id="layer1"
     transform="translate(0,-988.3622)"
     style="display:inline"
     sodipodi:insensitive="true">
    <path
       id="path3764"
       transform="translate(0,988.3622)"
       style="fill:#444444;fill-opacity:1;stroke:none"
       d="m 42,8 0,14 -6,0 0,-14 z M 4,4 4,60 60,60 60,8 56,4 z m 16,1 28,0 0,15 c 0,4 0,4 -4,4 l -20,0 c -4,0 -4.064096,-5.14e-4 -4,-4 z m -8,27 40,0 0,27 -40,0 z"
       inkscape:connector-curvature="0"
       sodipodi:nodetypes="cccccccccccccsssscccccc" />
  </g>
  <g
     inkscape:groupmode="layer"
     id="layer2"
     inkscape:label="Open"
     style="display:none">
    <path
       style="fill:#444444;fill-opacity:1;stroke:none"
       d="m 4,60 0,-40 5,0 1,-2 c 2,-4 2,-4 6,-4 l 10,0 c 4,0 4,0 6,4 l 1,2 27,0 0,40 z"
       id="path3768"
       inkscape:connector-curvature="0"
       sodipodi:nodetypes="ccccccccccc" />
  </g>
</svg>
